<?xml version="1.0" encoding="UTF-8" standalone="no"?>
<svg
   viewBox="0 0 262144 262144"
   version="1.1"
   id="svg132"
   sodipodi:docname="heart-pulse-solid.svg"
   width="262144"
   height="262144"
   xmlns:inkscape="http://www.inkscape.org/namespaces/inkscape"
   xmlns:sodipodi="http://sodipodi.sourceforge.net/DTD/sodipodi-0.dtd"
   xmlns="http://www.w3.org/2000/svg"
   xmlns:svg="http://www.w3.org/2000/svg">
  <defs
     id="defs136" />
  <sodipodi:namedview
     id="namedview134"
     pagecolor="#ffffff"
     bordercolor="#000000"
     borderopacity="0.25"
     inkscape:showpageshadow="2"
     inkscape:pageopacity="0.0"
     inkscape:pagecheckerboard="0"
     inkscape:deskcolor="#d1d1d1"
     showgrid="false" />
  <!--!Font Awesome Free 6.6.0 by @fontawesome - https://fontawesome.com License - https://fontawesome.com/license/free Copyright 2024 Fonticons, Inc.-->
  <path
     d="M 228.3,469.1 47.6,300.4 C 43.4,296.5 39.4,292.3 35.7,288 h 87 c 22.6,0 43,-13.6 51.7,-34.5 l 10.5,-25.2 49.3,109.5 c 3.8,8.5 12.1,14 21.4,14.1 9.3,0.1 17.8,-5 22,-13.3 l 42.4,-84.9 1.7,3.4 c 9.5,19 28.9,31 50.1,31 h 104.5 c -3.7,4.3 -7.7,8.5 -11.9,12.4 L 283.7,469.1 c -7.5,7 -17.4,10.9 -27.7,10.9 -10.3,0 -20.2,-3.9 -27.7,-10.9 z M 503.7,240 h -132 c -3,0 -5.8,-1.7 -7.2,-4.4 l -23.2,-46.3 c -4.1,-8.1 -12.4,-13.3 -21.5,-13.3 -9.1,0 -17.4,5.1 -21.5,13.3 l -41.4,82.8 -51,-113.9 c -3.9,-8.7 -12.7,-14.3 -22.2,-14.1 -9.5,0.2 -18.1,5.9 -21.8,14.8 l -31.8,76.3 c -1.2,3 -4.2,4.9 -7.4,4.9 L 16,240 c -2.6,0 -5,0.4 -7.3,1.1 C 3,225.2 0,208.2 0,190.9 v -5.8 C 0,115.2 50.5,55.6 119.4,44.1 165,36.5 211.4,51.4 244,84 l 12,12 12,-12 C 300.6,51.4 347,36.5 392.6,44.1 461.5,55.6 512,115.2 512,185.1 v 5.8 c 0,16.9 -2.8,33.5 -8.3,49.1 z"
     id="path130"
     style="fill:#dc6acf;fill-opacity:1" />
</svg>
